<svg width="137" height="24" viewBox="0 0 137 24" fill="none" xmlns="http://www.w3.org/2000/svg">
<g clip-path="url(#clip0_12_11)">
<path fill-rule="evenodd" clip-rule="evenodd" d="M8.32299 2.76923H20.677C21.4814 2.76928 22.2578 3.0191 22.8583 3.47116C23.4588 3.92323 23.8416 4.54598 23.9338 5.22092L25.6999 18.144C25.7529 18.5319 25.7082 18.9248 25.5688 19.2971C25.4293 19.6693 25.1982 20.0124 24.8907 20.3039C24.5831 20.5954 24.2061 20.8287 23.7842 20.9884C23.3624 21.1482 22.9054 21.2307 22.4431 21.2308H6.55688C6.09461 21.2307 5.63757 21.1482 5.21576 20.9884C4.79395 20.8287 4.4169 20.5954 4.10935 20.3039C3.8018 20.0124 3.5707 19.6693 3.43123 19.2971C3.29176 18.9248 3.24706 18.5319 3.30006 18.144L5.06617 5.22092C5.15841 4.54598 5.54121 3.92323 6.14173 3.47116C6.74224 3.0191 7.51857 2.76928 8.32299 2.76923ZM1.80936 4.90339C1.99384 3.55349 2.75944 2.30799 3.96047 1.40387C5.1615 0.499742 6.71415 9.60591e-05 8.32299 0H20.677C22.2858 9.60591e-05 23.8385 0.499742 25.0395 1.40387C26.2406 2.30799 27.0062 3.55349 27.1906 4.90339L28.9567 17.8265C29.0628 18.6022 28.9734 19.3881 28.6944 20.1326C28.4155 20.8771 27.9533 21.5633 27.3382 22.1463C26.7231 22.7293 25.969 23.1958 25.1254 23.5153C24.2817 23.8348 23.3677 23.9999 22.4431 24H6.55688C5.63234 23.9999 4.71827 23.8348 3.87465 23.5153C3.03102 23.1958 2.27692 22.7293 1.66182 22.1463C1.04672 21.5633 0.584533 20.8771 0.305586 20.1326C0.0266394 19.3881 -0.0627608 18.6022 0.0432526 17.8265L1.80936 4.90339ZM7.94266 6.92308C7.94266 6.55585 8.11538 6.20367 8.42281 5.94401C8.73025 5.68434 9.14722 5.53846 9.582 5.53846C10.0168 5.53846 10.4337 5.68434 10.7412 5.94401C11.0486 6.20367 11.2213 6.55585 11.2213 6.92308V7.38462C11.2213 8.11906 11.5668 8.82343 12.1816 9.34276C12.7965 9.86209 13.6304 10.1538 14.5 10.1538C15.3696 10.1538 16.2035 9.86209 16.8184 9.34276C17.4332 8.82343 17.7787 8.11906 17.7787 7.38462V6.92308C17.7787 6.55585 17.9514 6.20367 18.2588 5.94401C18.5663 5.68434 18.9832 5.53846 19.418 5.53846C19.8528 5.53846 20.2698 5.68434 20.5772 5.94401C20.8846 6.20367 21.0573 6.55585 21.0573 6.92308V7.38462C21.0573 8.85351 20.3665 10.2622 19.1367 11.3009C17.907 12.3396 16.2391 12.9231 14.5 12.9231C12.7609 12.9231 11.093 12.3396 9.86326 11.3009C8.63352 10.2622 7.94266 8.85351 7.94266 7.38462V6.92308Z" fill="#A30000"/>
<path d="M46.3395 8.45312C46.2732 7.83286 45.9938 7.34991 45.5014 7.00426C45.0137 6.65862 44.3793 6.4858 43.598 6.4858C43.0488 6.4858 42.5777 6.56866 42.1847 6.73438C41.7917 6.90009 41.491 7.125 41.2827 7.40909C41.0743 7.69318 40.9678 8.01752 40.9631 8.3821C40.9631 8.68513 41.0317 8.94792 41.169 9.17045C41.3111 9.39299 41.5028 9.58239 41.7443 9.73864C41.9858 9.89015 42.2533 10.018 42.5469 10.1222C42.8404 10.2263 43.1364 10.3139 43.4347 10.3849L44.7983 10.7259C45.3475 10.8537 45.8755 11.0265 46.3821 11.2443C46.8935 11.4621 47.3504 11.7367 47.7528 12.0682C48.16 12.3996 48.482 12.7997 48.7188 13.2685C48.9555 13.7372 49.0739 14.2865 49.0739 14.9162C49.0739 15.7685 48.8561 16.5189 48.4205 17.1676C47.9848 17.8116 47.3551 18.3158 46.5312 18.6804C45.7121 19.0402 44.7202 19.2202 43.5554 19.2202C42.4238 19.2202 41.4413 19.045 40.608 18.6946C39.7794 18.3442 39.1307 17.8329 38.6619 17.1605C38.1979 16.4882 37.947 15.669 37.9091 14.7031H40.5014C40.5393 15.2098 40.6955 15.6312 40.9702 15.9673C41.2448 16.3035 41.6023 16.5545 42.0426 16.7202C42.4877 16.8859 42.9848 16.9688 43.5341 16.9688C44.107 16.9688 44.6089 16.8835 45.0398 16.7131C45.4754 16.5379 45.8163 16.2964 46.0625 15.9886C46.3087 15.6761 46.4342 15.3116 46.4389 14.8949C46.4342 14.5161 46.3229 14.2036 46.1051 13.9574C45.8873 13.7064 45.5819 13.4981 45.1889 13.3324C44.8007 13.1619 44.3461 13.0104 43.8253 12.8778L42.1705 12.4517C40.9725 12.1439 40.0256 11.6776 39.3295 11.0526C38.6383 10.4228 38.2926 9.58712 38.2926 8.54545C38.2926 7.68845 38.5246 6.93797 38.9886 6.29403C39.4574 5.65009 40.0942 5.15057 40.8991 4.79545C41.7041 4.43561 42.6155 4.25568 43.6335 4.25568C44.6657 4.25568 45.5701 4.43561 46.3466 4.79545C47.1278 5.15057 47.741 5.64536 48.1861 6.27983C48.6312 6.90956 48.8608 7.634 48.875 8.45312H46.3395ZM53.5607 19L50.4783 8.09091H53.0991L55.0167 15.7614H55.1161L57.0763 8.09091H59.6687L61.6289 15.7188H61.7354L63.6246 8.09091H66.2525L63.163 19H60.4854L58.44 11.6278H58.2908L56.2454 19H53.5607ZM71.1868 19.2202C70.4955 19.2202 69.8729 19.0971 69.3189 18.8509C68.7696 18.5999 68.334 18.2306 68.0121 17.7429C67.6948 17.2552 67.5362 16.6539 67.5362 15.9389C67.5362 15.3234 67.6499 14.8144 67.8771 14.4119C68.1044 14.0095 68.4145 13.6875 68.8075 13.446C69.2005 13.2045 69.6432 13.0223 70.1357 12.8991C70.6328 12.7713 71.1465 12.679 71.6768 12.6222C72.3161 12.5559 72.8345 12.4967 73.2322 12.4446C73.63 12.3878 73.9188 12.3026 74.0987 12.1889C74.2834 12.0705 74.3757 11.8883 74.3757 11.642V11.5994C74.3757 11.0644 74.2171 10.6501 73.8999 10.3565C73.5826 10.063 73.1257 9.91619 72.5291 9.91619C71.8994 9.91619 71.3999 10.0535 71.0305 10.3281C70.666 10.6027 70.4197 10.9271 70.2919 11.3011L67.8913 10.9602C68.0807 10.2973 68.3932 9.74337 68.8288 9.2983C69.2644 8.84848 69.7971 8.51231 70.4268 8.28977C71.0566 8.0625 71.7526 7.94886 72.5149 7.94886C73.0405 7.94886 73.5637 8.01042 74.0845 8.13352C74.6054 8.25663 75.0812 8.46023 75.5121 8.74432C75.9429 9.02367 76.2886 9.40483 76.549 9.88778C76.8142 10.3707 76.9467 10.9744 76.9467 11.6989V19H74.4751V17.5014H74.3899C74.2337 17.8045 74.0135 18.0885 73.7294 18.3537C73.45 18.6141 73.0973 18.8248 72.6712 18.9858C72.2498 19.142 71.755 19.2202 71.1868 19.2202ZM71.8544 17.331C72.3705 17.331 72.8179 17.2292 73.1967 17.0256C73.5755 16.8172 73.8667 16.5426 74.0703 16.2017C74.2786 15.8608 74.3828 15.4891 74.3828 15.0866V13.8011C74.3023 13.8674 74.165 13.929 73.9709 13.9858C73.7815 14.0426 73.5684 14.0923 73.3317 14.1349C73.0949 14.1776 72.8606 14.2154 72.6286 14.2486C72.3965 14.2817 72.1953 14.3101 72.0249 14.3338C71.6413 14.3859 71.2981 14.4711 70.995 14.5895C70.692 14.7079 70.4529 14.8736 70.2777 15.0866C70.1025 15.295 70.0149 15.5649 70.0149 15.8963C70.0149 16.3698 70.1877 16.7273 70.5334 16.9688C70.879 17.2102 71.3194 17.331 71.8544 17.331ZM79.532 23.0909V8.09091H82.0604V9.89489H82.2095C82.3421 9.62973 82.5291 9.34801 82.7706 9.04972C83.0121 8.74669 83.3388 8.48864 83.7507 8.27557C84.1626 8.05777 84.6882 7.94886 85.3274 7.94886C86.1702 7.94886 86.9302 8.1643 87.6072 8.59517C88.2891 9.02131 88.8288 9.65341 89.2266 10.4915C89.629 11.3248 89.8303 12.3475 89.8303 13.5597C89.8303 14.7576 89.6338 15.7756 89.2408 16.6136C88.8478 17.4517 88.3127 18.0909 87.6357 18.5312C86.9586 18.9716 86.1915 19.1918 85.3345 19.1918C84.7095 19.1918 84.1911 19.0876 83.7791 18.8793C83.3672 18.6709 83.0357 18.42 82.7848 18.1264C82.5386 17.8281 82.3468 17.5464 82.2095 17.2812H82.103V23.0909H79.532ZM82.0533 13.5455C82.0533 14.2509 82.1527 14.8688 82.3516 15.3991C82.5552 15.9295 82.8464 16.3437 83.2251 16.642C83.6087 16.9356 84.0727 17.0824 84.6172 17.0824C85.1854 17.0824 85.6612 16.9309 86.0447 16.6278C86.4283 16.3201 86.7171 15.901 86.9112 15.3707C87.1101 14.8357 87.2095 14.2273 87.2095 13.5455C87.2095 12.8684 87.1125 12.267 86.9183 11.7415C86.7242 11.2159 86.4354 10.804 86.0518 10.5057C85.6683 10.2074 85.1901 10.0582 84.6172 10.0582C84.0679 10.0582 83.6016 10.2027 83.218 10.4915C82.8345 10.7803 82.5433 11.1851 82.3445 11.706C82.1503 12.2268 82.0533 12.84 82.0533 13.5455ZM92.1456 4.45455H95.37L99.6882 14.9943H99.8587L104.177 4.45455H107.401V19H104.873V9.0071H104.738L100.718 18.9574H98.8288L94.8089 8.9858H94.674V19H92.1456V4.45455ZM113.296 19.2202C112.605 19.2202 111.982 19.0971 111.428 18.8509C110.879 18.5999 110.443 18.2306 110.121 17.7429C109.804 17.2552 109.646 16.6539 109.646 15.9389C109.646 15.3234 109.759 14.8144 109.987 14.4119C110.214 14.0095 110.524 13.6875 110.917 13.446C111.31 13.2045 111.753 13.0223 112.245 12.8991C112.742 12.7713 113.256 12.679 113.786 12.6222C114.425 12.5559 114.944 12.4967 115.342 12.4446C115.739 12.3878 116.028 12.3026 116.208 12.1889C116.393 12.0705 116.485 11.8883 116.485 11.642V11.5994C116.485 11.0644 116.326 10.6501 116.009 10.3565C115.692 10.063 115.235 9.91619 114.638 9.91619C114.009 9.91619 113.509 10.0535 113.14 10.3281C112.775 10.6027 112.529 10.9271 112.401 11.3011L110.001 10.9602C110.19 10.2973 110.503 9.74337 110.938 9.2983C111.374 8.84848 111.906 8.51231 112.536 8.28977C113.166 8.0625 113.862 7.94886 114.624 7.94886C115.15 7.94886 115.673 8.01042 116.194 8.13352C116.715 8.25663 117.191 8.46023 117.621 8.74432C118.052 9.02367 118.398 9.40483 118.658 9.88778C118.924 10.3707 119.056 10.9744 119.056 11.6989V19H116.585V17.5014H116.499C116.343 17.8045 116.123 18.0885 115.839 18.3537C115.559 18.6141 115.207 18.8248 114.781 18.9858C114.359 19.142 113.864 19.2202 113.296 19.2202ZM113.964 17.331C114.48 17.331 114.927 17.2292 115.306 17.0256C115.685 16.8172 115.976 16.5426 116.18 16.2017C116.388 15.8608 116.492 15.4891 116.492 15.0866V13.8011C116.412 13.8674 116.274 13.929 116.08 13.9858C115.891 14.0426 115.678 14.0923 115.441 14.1349C115.204 14.1776 114.97 14.2154 114.738 14.2486C114.506 14.2817 114.305 14.3101 114.134 14.3338C113.751 14.3859 113.407 14.4711 113.104 14.5895C112.801 14.7079 112.562 14.8736 112.387 15.0866C112.212 15.295 112.124 15.5649 112.124 15.8963C112.124 16.3698 112.297 16.7273 112.643 16.9688C112.988 17.2102 113.429 17.331 113.964 17.331ZM121.641 19V8.09091H124.134V9.90909H124.248C124.447 9.27936 124.788 8.79403 125.271 8.45312C125.758 8.10748 126.315 7.93466 126.94 7.93466C127.082 7.93466 127.24 7.94176 127.415 7.95597C127.595 7.96544 127.745 7.98201 127.863 8.00568V10.3707C127.754 10.3329 127.581 10.2997 127.344 10.2713C127.112 10.2382 126.888 10.2216 126.67 10.2216C126.201 10.2216 125.78 10.3234 125.406 10.527C125.036 10.7259 124.745 11.0028 124.532 11.358C124.319 11.7131 124.212 12.1226 124.212 12.5866V19H121.641ZM135.604 8.09091V10.0795H129.333V8.09091H135.604ZM130.881 5.47727H133.452V15.7188C133.452 16.0644 133.504 16.3295 133.609 16.5142C133.718 16.6941 133.86 16.8172 134.035 16.8835C134.21 16.9498 134.404 16.983 134.617 16.983C134.778 16.983 134.925 16.9711 135.058 16.9474C135.195 16.9238 135.299 16.9025 135.37 16.8835L135.803 18.8935C135.666 18.9408 135.469 18.9929 135.214 19.0497C134.963 19.1065 134.655 19.1397 134.29 19.1491C133.647 19.1681 133.067 19.071 132.55 18.858C132.034 18.6402 131.625 18.304 131.322 17.8494C131.023 17.3949 130.877 16.8267 130.881 16.1449V5.47727Z" fill="black"/>
</g>
<defs>
<clipPath id="clip0_12_11">
<rect width="137" height="24" fill="white"/>
</clipPath>
</defs>
</svg>
