<svg width="466" height="99" viewBox="0 0 466 99" fill="none" xmlns="http://www.w3.org/2000/svg">
<path d="M48.5 70V90M20.5 70H76.5V62.96C76.4992 61.4717 76.0832 60.0131 75.2989 58.7482C74.5145 57.4833 73.3928 56.4623 72.06 55.8L64.94 52.2C63.6072 51.5377 62.4855 50.5167 61.7011 49.2518C60.9168 47.9869 60.5008 46.5283 60.5 45.04V26H64.5C66.6217 26 68.6566 25.1571 70.1569 23.6569C71.6571 22.1566 72.5 20.1217 72.5 18C72.5 15.8783 71.6571 13.8434 70.1569 12.3431C68.6566 10.8429 66.6217 10 64.5 10H32.5C30.3783 10 28.3434 10.8429 26.8431 12.3431C25.3429 13.8434 24.5 15.8783 24.5 18C24.5 20.1217 25.3429 22.1566 26.8431 23.6569C28.3434 25.1571 30.3783 26 32.5 26H36.5V45.04C36.4992 46.5283 36.0832 47.9869 35.2989 49.2518C34.5145 50.5167 33.3929 51.5377 32.06 52.2L24.94 55.8C23.6071 56.4623 22.4855 57.4833 21.7011 58.7482C20.9168 60.0131 20.5008 61.4717 20.5 62.96V70Z" stroke="#BF1616" stroke-width="6" stroke-linecap="round" stroke-linejoin="round"/>
<path d="M145.394 73.528C141.874 73.528 138.508 73 135.296 71.944C132.084 70.844 129.554 69.436 127.706 67.72L130.148 62.572C131.908 64.112 134.152 65.388 136.88 66.4C139.608 67.412 142.446 67.918 145.394 67.918C148.078 67.918 150.256 67.61 151.928 66.994C153.6 66.378 154.832 65.542 155.624 64.486C156.416 63.386 156.812 62.154 156.812 60.79C156.812 59.206 156.284 57.93 155.228 56.962C154.216 55.994 152.874 55.224 151.202 54.652C149.574 54.036 147.77 53.508 145.79 53.068C143.81 52.628 141.808 52.122 139.784 51.55C137.804 50.934 135.978 50.164 134.306 49.24C132.678 48.316 131.358 47.084 130.346 45.544C129.334 43.96 128.828 41.936 128.828 39.472C128.828 37.096 129.444 34.918 130.676 32.938C131.952 30.914 133.888 29.308 136.484 28.12C139.124 26.888 142.468 26.272 146.516 26.272C149.2 26.272 151.862 26.624 154.502 27.328C157.142 28.032 159.43 29.044 161.366 30.364L159.188 35.644C157.208 34.324 155.118 33.378 152.918 32.806C150.718 32.19 148.584 31.882 146.516 31.882C143.92 31.882 141.786 32.212 140.114 32.872C138.442 33.532 137.21 34.412 136.418 35.512C135.67 36.612 135.296 37.844 135.296 39.208C135.296 40.836 135.802 42.134 136.814 43.102C137.87 44.07 139.212 44.84 140.84 45.412C142.512 45.984 144.338 46.512 146.318 46.996C148.298 47.436 150.278 47.942 152.258 48.514C154.282 49.086 156.108 49.834 157.736 50.758C159.408 51.682 160.75 52.914 161.762 54.454C162.774 55.994 163.28 57.974 163.28 60.394C163.28 62.726 162.642 64.904 161.366 66.928C160.09 68.908 158.11 70.514 155.426 71.746C152.786 72.934 149.442 73.528 145.394 73.528ZM178.746 73L165.744 38.02H171.75L183.3 69.7H180.462L192.474 38.02H197.82L209.568 69.7H206.796L218.61 38.02H224.286L211.218 73H205.146L194.124 44.092H195.972L184.818 73H178.746ZM251.333 73V65.608L251.003 64.222V51.616C251.003 48.932 250.211 46.864 248.627 45.412C247.087 43.916 244.755 43.168 241.631 43.168C239.563 43.168 237.539 43.52 235.559 44.224C233.579 44.884 231.907 45.786 230.543 46.93L227.903 42.178C229.707 40.726 231.863 39.626 234.371 38.878C236.923 38.086 239.585 37.69 242.357 37.69C247.153 37.69 250.849 38.856 253.445 41.188C256.041 43.52 257.339 47.084 257.339 51.88V73H251.333ZM239.849 73.396C237.253 73.396 234.965 72.956 232.985 72.076C231.049 71.196 229.553 69.986 228.497 68.446C227.441 66.862 226.913 65.08 226.913 63.1C226.913 61.208 227.353 59.492 228.233 57.952C229.157 56.412 230.631 55.18 232.655 54.256C234.723 53.332 237.495 52.87 240.971 52.87H252.059V57.424H241.235C238.067 57.424 235.933 57.952 234.833 59.008C233.733 60.064 233.183 61.34 233.183 62.836C233.183 64.552 233.865 65.938 235.229 66.994C236.593 68.006 238.485 68.512 240.905 68.512C243.281 68.512 245.349 67.984 247.109 66.928C248.913 65.872 250.211 64.332 251.003 62.308L252.257 66.664C251.421 68.732 249.947 70.382 247.835 71.614C245.723 72.802 243.061 73.396 239.849 73.396ZM287.611 73.396C284.707 73.396 282.045 72.736 279.625 71.416C277.249 70.052 275.335 68.05 273.883 65.41C272.475 62.77 271.771 59.47 271.771 55.51C271.771 51.55 272.453 48.25 273.817 45.61C275.225 42.97 277.117 40.99 279.493 39.67C281.913 38.35 284.619 37.69 287.611 37.69C291.043 37.69 294.079 38.438 296.719 39.934C299.359 41.43 301.449 43.52 302.989 46.204C304.529 48.844 305.299 51.946 305.299 55.51C305.299 59.074 304.529 62.198 302.989 64.882C301.449 67.566 299.359 69.656 296.719 71.152C294.079 72.648 291.043 73.396 287.611 73.396ZM269.065 85.804V38.02H275.137V47.458L274.741 55.576L275.401 63.694V85.804H269.065ZM287.083 67.852C289.327 67.852 291.329 67.346 293.089 66.334C294.893 65.322 296.301 63.892 297.313 62.044C298.369 60.152 298.897 57.974 298.897 55.51C298.897 53.002 298.369 50.846 297.313 49.042C296.301 47.194 294.893 45.764 293.089 44.752C291.329 43.74 289.327 43.234 287.083 43.234C284.883 43.234 282.881 43.74 281.077 44.752C279.317 45.764 277.909 47.194 276.853 49.042C275.841 50.846 275.335 53.002 275.335 55.51C275.335 57.974 275.841 60.152 276.853 62.044C277.909 63.892 279.317 65.322 281.077 66.334C282.881 67.346 284.883 67.852 287.083 67.852ZM314.977 73V26.8H320.389L341.113 61.714H338.209L358.669 26.8H364.081L364.147 73H357.811L357.745 36.766H359.263L341.047 67.39H338.011L319.663 36.766H321.313V73H314.977ZM398.802 73V65.608L398.472 64.222V51.616C398.472 48.932 397.68 46.864 396.096 45.412C394.556 43.916 392.224 43.168 389.1 43.168C387.032 43.168 385.008 43.52 383.028 44.224C381.048 44.884 379.376 45.786 378.012 46.93L375.372 42.178C377.176 40.726 379.332 39.626 381.84 38.878C384.392 38.086 387.054 37.69 389.826 37.69C394.622 37.69 398.318 38.856 400.914 41.188C403.51 43.52 404.808 47.084 404.808 51.88V73H398.802ZM387.318 73.396C384.722 73.396 382.434 72.956 380.454 72.076C378.518 71.196 377.022 69.986 375.966 68.446C374.91 66.862 374.382 65.08 374.382 63.1C374.382 61.208 374.822 59.492 375.702 57.952C376.626 56.412 378.1 55.18 380.124 54.256C382.192 53.332 384.964 52.87 388.44 52.87H399.528V57.424H388.704C385.536 57.424 383.402 57.952 382.302 59.008C381.202 60.064 380.652 61.34 380.652 62.836C380.652 64.552 381.334 65.938 382.698 66.994C384.062 68.006 385.954 68.512 388.374 68.512C390.75 68.512 392.818 67.984 394.578 66.928C396.382 65.872 397.68 64.332 398.472 62.308L399.726 66.664C398.89 68.732 397.416 70.382 395.304 71.614C393.192 72.802 390.53 73.396 387.318 73.396ZM416.533 73V38.02H422.605V47.524L422.011 45.148C422.979 42.728 424.607 40.88 426.895 39.604C429.183 38.328 431.999 37.69 435.343 37.69V43.828C435.079 43.784 434.815 43.762 434.551 43.762C434.331 43.762 434.111 43.762 433.891 43.762C430.503 43.762 427.819 44.774 425.839 46.798C423.859 48.822 422.869 51.748 422.869 55.576V73H416.533ZM456.582 73.396C453.062 73.396 450.334 72.45 448.398 70.558C446.462 68.666 445.494 65.96 445.494 62.44V30.364H451.83V62.176C451.83 64.068 452.292 65.52 453.216 66.532C454.184 67.544 455.548 68.05 457.308 68.05C459.288 68.05 460.938 67.5 462.258 66.4L464.238 70.954C463.27 71.79 462.104 72.406 460.74 72.802C459.42 73.198 458.034 73.396 456.582 73.396ZM439.554 43.234V38.02H461.862V43.234H439.554Z" fill="#1F2A37"/>
</svg>
